#!OML:ASF F:\VICON\USERDATA\INSTALL\rory3\rory3.ASF
:FULLY-SPECIFIED
:DEGREES
35
root 2.12079 17.6313 -7.06209 4.01163 2.07023 4.8383
lowerback 18.0907 -1.86118 -6.99592
upperback 1.28978 -4.01952 -1.73459
thorax -8.39459 -1.69936 3.07403
lowerneck -3.19061 0.875679 -1.91119
upperneck -11.2792 1.42628 2.85577
head -3.09961 0.695687 1.23122
rclavicle 1.48095e-014 2.22639e-014
rhumerus -55.1685 6.87949 -85.3768
rradius 74.751
rwrist 0.68357
rhand -33.1871 31.5065
rfingers 7.12502
rthumb -6.39485 1.62299
lclavicle 1.48095e-014 2.22639e-014
lhumerus -13.6968 -20.4421 84.7699
lradius 114.468
lwrist 22.9697
lhand -31.1395 9.20208
lfingers 7.12502
lthumb -4.4178 39.136
rfemur -40.0231 -6.6722 16.0848
rtibia 104.227
rfoot 13.7992 -5.1086
rtoes 8.31994
lfemur 0.329035 -4.84027 -29.3665
ltibia 31.6619
lfoot -11.6413 -1.41615
ltoes -29.4584
36
root 2.10543 17.7389 -6.54759 4.32083 2.09442 4.71537
lowerback 17.7285 -2.06183 -7.24675
upperback 1.14369 -4.28237 -1.41878
thorax -8.28448 -1.81285 3.60051
lowerneck -3.00335 1.0342 -1.90444
upperneck -11.4919 1.61791 2.61188
head -3.209 0.795604 1.14757
rclavicle 3.54831e-014 -7.55382e-015
rhumerus -55.9586 6.69979 -84.8521
rradius 74.6125
rwrist 0.407209
rhand -33.1853 33.0215
rfingers 7.12502
rthumb -6.39311 3.13801
lclavicle 3.54831e-014 -7.55382e-015
lhumerus -13.2568 -20.5414 84.8402
lradius 115.202
lwrist 23.8789
lhand -31.863 8.5833
lfingers 7.12502
lthumb -5.11643 38.5015
rfemur -41.7109 -6.0138 16.6549
rtibia 101.409
rfoot 11.0491 -4.313
rtoes -0.576918
lfemur 2.42288 -4.69434 -29.0437
ltibia 29.8337
lfoot -8.75748 -2.32636
ltoes -30.2714
37
root 2.10138 17.8255 -6.03332 4.77748 2.16908 4.89626
lowerback 17.342 -2.36461 -7.45264
upperback 0.828825 -4.69457 -1.27152
thorax -8.34163 -1.99136 3.95414
lowerneck -2.97002 1.27864 -1.71562
upperneck -11.2302 1.90104 2.16854
head -3.12229 0.942469 0.962912
rclavicle -5.93372e-014 1.27222e-014
rhumerus -57.0087 6.60817 -84.3838
rradius 74.6547
rwrist 0.240566
rhand -32.7672 33.911
rfingers 7.12502
rthumb -5.98947 4.0157
lclavicle -5.93372e-014 1.27222e-014
lhumerus -13.308 -20.7791 84.9371
lradius 116.166
lwrist 25.1392
lhand -33.1256 8.97733
lfingers 7.12502
lthumb -6.33544 38.8626
rfemur -43.3643 -5.54263 16.697
rtibia 98.4264
rfoot 11.6791 -3.23558
rtoes 3.29235
lfemur 4.34286 -4.56534 -29.0408
ltibia 27.8124
lfoot -5.41073 -3.21403
ltoes -31.4015
38
root 2.11076 17.9067 -5.50609 5.05627 2.23386 5.15005
lowerback 16.8446 -2.69763 -7.421
upperback 0.672931 -5.09212 -1.2599
thorax -8.19107 -2.18875 4.00745
lowerneck -3.22015 1.40559 -1.47403
upperneck -10.6904 2.02781 1.73681
head -2.88403 1.01076 0.778708
rclavicle -3.17062e-014 3.97569e-015
rhumerus -57.9131 6.44516 -83.9297
rradius 74.7064
rwrist -0.11656
rhand -32.6026 32.8721
rfingers 7.12502
rthumb -5.83055 2.97229
lclavicle -3.17062e-014 3.97569e-015
lhumerus -13.0565 -21.0585 84.8516
lradius 116.94
lwrist 26.1451
lhand -33.8015 9.84413
lfingers 7.12502
lthumb -6.98799 39.7088
rfemur -44.4128 -5.11995 16.4563
rtibia 95.1346
rfoot 9.76607 -2.2852
rtoes -2.32575
lfemur 6.64483 -4.4662 -29.1555
ltibia 25.5549
lfoot -1.69451 -4.03263
ltoes -31.7304
39
root 2.11765 18.0054 -4.96606 5.12053 2.19044 5.20782
lowerback 16.276 -2.93848 -7.41777
upperback 0.699037 -5.34269 -1.09882
thorax -7.79989 -2.32863 4.18728
lowerneck -3.30225 1.52112 -1.49228
upperneck -10.4965 2.16289 1.52303
head -2.80268 1.0848 0.711157
rclavicle -6.4605e-014 1.23246e-014
rhumerus -58.6332 6.30111 -83.3071
rradius 74.7103
rwrist -0.727019
rhand -33.3037 30.7828
rfingers 7.12502
rthumb -6.50745 0.902803
lclavicle -6.4605e-014 1.23246e-014
lhumerus -12.6671 -21.2161 84.8419
lradius 117.544
lwrist 26.9392
lhand -34.1065 8.81626
lfingers 7.12502
lthumb -7.28238 38.6709
rfemur -44.9086 -4.54447 16.4214
rtibia 91.4161
rfoot 11.8852 -1.45265
rtoes 8.52853
lfemur 9.16294 -4.40456 -29.0757
ltibia 23.1555
lfoot 2.49086 -4.50171
ltoes -30.5386
40
root 2.1209 18.1094 -4.41747 5.24271 1.79536 4.91719
lowerback 16.4444 -2.97419 -7.14944
upperback 0.16461 -5.36575 -0.818722
thorax -8.47284 -2.29883 4.38181
lowerneck -3.2488 1.65332 -1.50149
upperneck -9.90048 2.31626 1.30105
head -2.61032 1.16758 0.639226
rclavicle -3.03147e-015 -1.66979e-014
rhumerus -60.1379 6.0782 -82.5913
rradius 74.7811
rwrist -1.1236
rhand -33.3262 29.3755
rfingers 7.12502
rthumb -6.52914 -0.503826
lclavicle -3.03147e-015 -1.66979e-014
lhumerus -13.8504 -21.464 85.5658
lradius 118.375
lwrist 27.8268
lhand -34.112 8.79659
lfingers 7.12502
lthumb -7.28771 38.6511
rfemur -45.2955 -3.47918 16.7724
rtibia 87.3557
rfoot 11.7141 -0.935899
rtoes 10.2978
lfemur 11.4496 -4.34394 -28.7066
ltibia 20.4506
lfoot 7.468 -4.18384
ltoes -28.9718
41
root 2.12609 18.1912 -3.87216 5.48875 1.27893 4.68495
lowerback 15.8059 -3.11625 -6.71155
upperback 0.0476575 -5.42474 -0.786822
thorax -8.27111 -2.35464 4.13999
lowerneck -3.34701 1.79574 -1.15009
upperneck -9.72789 2.48104 1.01187
head -2.5268 1.24475 0.486083
rclavicle 4.65653e-014 -1.98785e-015
rhumerus -60.9646 5.82846 -82.2891
rradius 74.9399
rwrist -1.47259
rhand -33.1186 28.687
rfingers 7.12502
rthumb -6.3287 -1.19846
lclavicle 4.65653e-014 -1.98785e-015
lhumerus -14.4119 -21.7163 85.5888
lradius 119.144
lwrist 28.3914
lhand -34.6933 10.6303
lfingers 7.12502
lthumb -7.84879 40.4647
rfemur -45.7763 -2.4492 16.9915
rtibia 83.2076
rfoot 10.236 -0.361622
rtoes 7.47989
lfemur 13.7711 -4.30438 -28.4786
ltibia 17.3783
lfoot 12.946 -3.0522
ltoes -27.8182
42
root 2.1296 18.2607 -3.32807 5.52055 0.849663 4.70542
lowerback 15.649 -3.23601 -6.6922
upperback -0.237643 -5.57631 -0.688325
thorax -8.46988 -2.4115 4.26695
lowerneck -3.01813 1.89024 -0.888732
upperneck -9.60392 2.57189 0.61485
head -2.53401 1.28986 0.311929
rclavicle 8.71671e-014 8.94531e-015
rhumerus -62.0851 5.79597 -81.8401
rradius 75.1078
rwrist -1.86669
rhand -33.5324 27.5302
rfingers 7.12502
rthumb -6.72819 -2.34289
lclavicle 8.71671e-014 8.94531e-015
lhumerus -15.2206 -21.8874 85.8434
lradius 119.681
lwrist 28.7842
lhand -35.0557 9.41153
lfingers 7.12502
lthumb -8.19856 39.2325
rfemur -45.8587 -1.64922 16.8926
rtibia 78.938
rfoot 9.09059 0.16503
rtoes 5.27376
lfemur 16.6645 -4.33817 -28.546
ltibia 13.7674
lfoot 18.654 -1.42389
ltoes -26.3733
43
root 2.13171 18.3365 -2.77967 5.62383 0.557104 4.61692
lowerback 15.4868 -3.4067 -6.70084
upperback -0.514552 -5.78113 -0.389073
thorax -8.62537 -2.49014 4.63495
lowerneck -3.02574 2.08665 -1.11145
upperneck -9.16147 2.82813 0.529672
head -2.39002 1.42683 0.321395
rclavicle -8.79622e-015 -8.15017e-015
rhumerus -63.0653 6.00683 -81.1764
rradius 75.3231
rwrist -2.49672
rhand -33.9179 26.9786
rfingers 7.12502
rthumb -7.10033 -2.88225
lclavicle -8.79622e-015 -8.15017e-015
lhumerus -16.0414 -21.785 86.2785
lradius 120.24
lwrist 29.345
lhand -34.8632 6.72986
lfingers 7.12502
lthumb -8.01272 36.558
rfemur -45.7412 -1.03971 16.8991
rtibia 74.4322
rfoot 8.22874 0.366709
rtoes 4.07368
lfemur 19.685 -4.51749 -28.4643
ltibia 9.43595
lfoot 24.5217 0.423484
ltoes -24.9234
44
root 2.13727 18.4143 -2.22751 5.74627 0.240757 4.7571
lowerback 14.6072 -3.52178 -6.72821
upperback 0.561907 -5.79556 -0.229002
thorax -6.93578 -2.6042 4.68813
lowerneck -7.6652 2.13404 -1.3987
upperneck -7.61296 2.94467 0.578045
head -1.11312 1.49626 0.441298
rclavicle 5.59579e-014 7.95139e-015
rhumerus -61.2402 5.554 -80.347
rradius 75.2227
rwrist -3.24229
rhand -33.9482 28.8529
rfingers 7.12502
rthumb -7.12954 -1.00706
lclavicle 5.59579e-014 7.95139e-015
lhumerus -13.7045 -21.8047 85.4551
lradius 120.454
lwrist 29.4361
lhand -34.8346 6.52769
lfingers 7.12502
lthumb -7.98516 36.3569
rfemur -45.5021 -0.443642 16.5775
rtibia 69.7331
rfoot 7.08332 0.447929
rtoes 1.79535
lfemur 24.0265 -4.71409 -28.5926
ltibia 2.39403
lfoot 30.5378 2.41
ltoes -25.2255
45
root 2.14741 18.4833 -1.67643 5.9761 -0.246709 4.9625
lowerback 13.4827 -3.49671 -6.6681
upperback 0.0997957 -5.71156 -0.478648
thorax -6.84783 -2.56648 4.30265
lowerneck -4.62861 2.18508 -0.562565
upperneck -8.48512 2.93359 0.174615
head -1.87388 1.47095 0.139683
rclavicle 3.69739e-014 -6.55989e-015
rhumerus -63.0623 4.95834 -80.1394
rradius 75.5151
rwrist -3.9808
rhand -34.332 31.8222
rfingers 7.12502
rthumb -7.49999 1.97517
lclavicle 3.69739e-014 -6.55989e-015
lhumerus -15.5263 -22.7734 85.9005
lradius 120.948
lwrist 29.1533
lhand -35.2153 5.717
lfingers 7.12502
lthumb -8.35259 35.5319
rfemur -45.2424 0.350122 16.1129
rtibia 64.8664
rfoot 6.28899 0.531945
rtoes 1.29975
lfemur 25.9615 -4.73659 -28.8784
ltibia -6.36111e-015
lfoot 34.5207 2.95052
ltoes -20.1651
